# xmcd
#
# Track frame offsets:
#	150
#	14337
#	26385
#	41961
#	55991
#	69991
#	84736
#	100106
#	112240
#	126406
#	139183
#	153502
#	167731
#	180268
#	190313
#	205698
#	219220
#	231838
#	242585
#	255425
#	270307
#	285625
#	299239
#	308762
#	323521
#
# Disc length: 4514 seconds
#
# Revision: 0
# Processed by: cddbd v1.5.1PL0 Copyright (c) Steve Scherf et al.
# Submitted via: dBpowerAMP V4.0
#
DISCID=6711a019
DTITLE=Various Artist - The Melody Lingers On - 2
DYEAR=2005
DGENRE=Oldies
TTITLE0=That's Amore - Dean Martin
TTITLE1=High Noon - Frankie Laine
TTITLE2=Mona Lisa - Nat King Cole
TTITLE3=Wheel Of Fortune - Kay Starr
TTITLE4=Lady Of Spain - Eddie Fisher
TTITLE5=No Other Love - Perry Como
TTITLE6=It's Magic -Doris Day
TTITLE7=O Mein Papa - Eddie Calvert
TTITLE8=She Wears Red Feathers - Guy Mitchell
TTITLE9=Shrimp Boats - Jo Stafford
TTITLE10=Jezebel - Frankie Laine
TTITLE11=Indian Love Call - Slim Whitman
TTITLE12=Half As Much - Rosemary Clooney
TTITLE13=The Harry Lime Theme - Anton Karas
TTITLE14=Too Young - Nat King Cole
TTITLE15=Charmaine - Mantovani and His Orchestra
TTITLE16=If - Dean Martin
TTITLE17=Walkin' My Baby Back Home - Johnnie Ray
TTITLE18=Dragnet - Ray anthony and His Orchestra
TTITLE19=Lover - Peggy Lee
TTITLE20=It's All In The Game - Louis Armstrong
TTITLE21=Way Down Yonder In New Orleans - Frankie Laine and Jo Stafford
TTITLE22=Wonderful Copenhagen - Danny Kaye
TTITLE23=Drinking Song - Mario Lanza
TTITLE24=Goodnight Irene - The Weavers
EXTD=The Melody Lingers On - Disc 2
EXTT0=
EXTT1=
EXTT2=
EXTT3=
EXTT4=
EXTT5=
EXTT6=
EXTT7=
EXTT8=
EXTT9=
EXTT10=
EXTT11=
EXTT12=
EXTT13=
EXTT14=
EXTT15=
EXTT16=
EXTT17=
EXTT18=
EXTT19=
EXTT20=
EXTT21=
EXTT22=
EXTT23=
EXTT24=
PLAYORDER=
